<?xml version="1.0"?>
<svg xmlns="http://www.w3.org/2000/svg" xmlns:xlink="http://www.w3.org/1999/xlink" width="284.166656" height="207.916656">
	<defs>
		<radialGradient id="Fill_PG-01" fx="50%" fy="50%" r="100%">
			<stop offset="0%" stop-color="#00A352" stop-opacity="0.784313679" />
			<stop offset="100%" stop-color="#CC0056" stop-opacity="0.533333302" />
		</radialGradient>
		<marker id="CustomMarker-01" markerUnits="strokeWidth" markerWidth="15.000001" markerHeight="9" viewBox="-15 -4.5 15 9" orient="auto-start-reverse">
			<path d="M 0 -0 L -10 -3, -8 -0.5, -8 0.5, -10 3 Z" fill="#000000" stroke="#000000" stroke-linejoin="round" />
		</marker>
		<marker id="CustomMarker-02" markerUnits="strokeWidth" markerWidth="15.000001" markerHeight="9" viewBox="-15 -4.5 15 9" orient="auto-start-reverse">
			<path d="M 0 -0 L -10 -3, -8 -0.5, -8 0.5, -10 3 Z" fill="#000000" stroke="#000000" stroke-linejoin="round" />
		</marker>
		<marker id="CustomMarker-03" markerUnits="strokeWidth" markerWidth="15.000001" markerHeight="6" viewBox="-15 -3 15 6" orient="auto-start-reverse">
			<path d="M 0 -0 L -10 -2, -10 -0.5, -10 0.5, -10 2 Z" fill="#000000" stroke="#000000" stroke-linejoin="round" />
		</marker>
		<marker id="CustomMarker-04" markerUnits="strokeWidth" markerWidth="15.000001" markerHeight="6" viewBox="-15 -3 15 6" orient="auto-start-reverse">
			<path d="M 0 -0 L -10 -2, -10 -0.5, -10 0.5, -10 2 Z" fill="#000000" stroke="#000000" stroke-linejoin="round" />
		</marker>
		<marker id="CustomMarker-05" markerUnits="strokeWidth" markerWidth="14.25" markerHeight="7.5" viewBox="-14.25 -3.75 14.25 7.5" orient="auto-start-reverse">
			<path d="M 0 -0 L -9.5 -2.5, -7.6 -0.5, -7.6 0.5, -9.5 2.5 Z" fill="white" stroke="#2ECC00" stroke-linejoin="round" />
		</marker>
		<marker id="CustomMarker-06" markerUnits="strokeWidth" markerWidth="14.25" markerHeight="7.5" viewBox="-14.25 -3.75 14.25 7.5" orient="auto-start-reverse">
			<path d="M 0 -0 L -9.5 -2.5, -7.6 -0.5, -7.6 0.5, -9.5 2.5 Z" fill="white" stroke="#2ECC00" stroke-linejoin="round" />
		</marker>
		<marker id="CustomMarker-07" markerUnits="strokeWidth" markerWidth="9.4800005" markerHeight="9.4800005" viewBox="-4.74 -4.74 9.48 9.48" orient="auto-start-reverse">
			<path d="M -0 -3.16 C 1.74522 -3.16, 3.16 -1.74522, 3.16 0, 3.16 1.74522, 1.74522 3.16, -0 3.16, -1.74522 3.16, -3.16 1.74522, -3.16 0, -3.16 -1.74522, -1.74522 -3.16, -0 -3.16 Z" fill="#DB008B" stroke="#DB008B" stroke-linejoin="round" />
		</marker>
		<marker id="CustomMarker-08" markerUnits="strokeWidth" markerWidth="9.4800005" markerHeight="9.4800005" viewBox="-4.74 -4.74 9.48 9.48" orient="auto-start-reverse">
			<path d="M -0 -3.16 C 1.74522 -3.16, 3.16 -1.74522, 3.16 0, 3.16 1.74522, 1.74522 3.16, -0 3.16, -1.74522 3.16, -3.16 1.74522, -3.16 0, -3.16 -1.74522, -1.74522 -3.16, -0 -3.16 Z" fill="#DB008B" stroke="#DB008B" stroke-linejoin="round" />
		</marker>
	</defs>
	<path d="M 88.1364 -0 C 88.1364 48.6764, 48.6764 88.1364, -0 88.1364, -48.6764 88.1364, -88.1364 48.6764, -88.1364 -0, -88.1364 -48.6764, -48.6764 -88.1364, -0 -88.1364, 48.6764 -88.1364, 88.1364 -48.6764, 88.1364 -0 Z" stroke="none" fill="url(#Fill_PG-01)" transform="matrix(0.416667 0 0 0.416667 184.988 109.458)" />
	<path d="M 88.1364 -0 C 88.1364 48.6764, 48.6764 88.1364, -0 88.1364, -48.6764 88.1364, -88.1364 48.6764, -88.1364 -0, -88.1364 -48.6764, -48.6764 -88.1364, -0 -88.1364, 48.6764 -88.1364, 88.1364 -48.6764, 88.1364 -0 Z" fill="none" stroke="#000000" stroke-width="2.4000001" stroke-linecap="round" stroke-linejoin="round" transform="matrix(0.416667 0 0 0.416667 184.988 109.458)" />
	<path d="M -253.017 0 L 253.017 0" fill="none" stroke="#000000" stroke-width="2.4000001" stroke-linecap="round" stroke-linejoin="round" marker-end="url(#CustomMarker-01)" transform="matrix(0.416667 0 0 0.416667 143.433 169.753)" />
	<path d="M 0 174.646 L 0 -174.645" fill="none" stroke="#000000" stroke-width="2.4000001" stroke-linecap="round" stroke-linejoin="round" marker-end="url(#CustomMarker-02)" transform="matrix(0.416667 0 0 0.416667 72.7854 96.9842)" />
	<path d="M 0 0 C -16 -117.333, 82.6669 -208.707, 209.334 -182.667" fill="none" stroke="#000000" stroke-width="2.4000001" stroke-linecap="round" stroke-linejoin="round" transform="matrix(0.416667 0 0 0.416667 138.814 142.152)" />
	<ellipse cx="909.01344013214111" cy="308.52650165557861" rx="6.3000001907348633" ry="6.3000001907348633" stroke="none" fill="#000000" transform="matrix(0.416667 0 0 0.416667 -218.333 -46.6667)" />
	<path d="M -216.532 155.424 L 216.532 -155.424" fill="none" stroke="#000000" stroke-width="2.4000001" stroke-linecap="round" stroke-linejoin="round" transform="matrix(0.416667 0 0 0.416667 128.23 104.993)" />
	<g transform="matrix(1 0 -0 1 145.98 57.235)">
		<svg width="48.041851" height="35.9010201">
			<defs />
			<path d="M 14.3244 3.38761 C 14.2951 3.53695, 14.2038 3.61117, 14.0504 3.61072, 13.8183 3.61117, 13.5983 3.61612, 13.3905 3.62557, 13.1831 3.63546, 13.0325 3.66065, 12.9384 3.70114, 12.8449 3.74207, 12.7707 3.86802, 12.7158 4.07854 L 10.6326 12.1899 C 10.6029 12.296, 10.5881 12.3797, 10.5881 12.4418, 10.5881 12.4998, 10.6029 12.5358, 10.6326 12.5497, 10.7019 12.5934, 10.8368 12.6185, 11.037 12.6257, 11.2372 12.6329, 11.4536 12.6365, 11.6857 12.6361, 11.8242 12.6365, 11.893 12.6941, 11.893 12.8088, 11.893 12.8381, 11.8881 12.8691, 11.8782 12.9024 L 11.8485 13.0104 C 11.8341 13.0733, 11.8008 13.126, 11.7486 13.1687, 11.6969 13.2119, 11.6362 13.2335, 11.5669 13.2335, 10.979 13.2047, 10.3812 13.1903, 9.77299 13.1903, 9.16527 13.1903, 8.55261 13.2047, 7.93454 13.2335, 7.80589 13.2335, 7.74157 13.1714, 7.74157 13.0463 L 7.74157 12.9888, 7.77125 12.8664 C 7.81084 12.7085, 7.90755 12.6316, 8.06049 12.6361, 8.29261 12.6365, 8.51032 12.6329, 8.71275 12.6257, 8.91562 12.6185, 9.06631 12.5934, 9.16483 12.5497, 9.25389 12.502, 9.32586 12.3725, 9.37984 12.1611 L 11.463 4.12173, 5.95484 13.0319 C 5.88107 13.1664, 5.76727 13.2335, 5.61387 13.2335 L 5.5401 13.2335 C 5.38716 13.2335, 5.2954 13.157, 5.26571 13.0032 L 4.36875 4.2009, 2.41919 11.794 C 2.3895 11.8808, 2.37466 11.9721, 2.37466 12.0675, 2.37466 12.0918, 2.3796 12.1183, 2.3895 12.1467, 2.3994 12.2623, 2.43898 12.3536, 2.5078 12.4202, 2.59687 12.507, 2.71563 12.5646, 2.86407 12.5934, 3.01251 12.6221, 3.1803 12.6365, 3.36788 12.6361, 3.50643 12.6365, 3.57525 12.6941, 3.57525 12.8088, 3.57525 12.8381, 3.5703 12.8691, 3.5604 12.9024 L 3.53117 13.0104 C 3.51632 13.0733, 3.48303 13.126, 3.43085 13.1687, 3.37912 13.2119, 3.31615 13.2335, 3.24193 13.2335, 2.74801 13.2047, 2.2487 13.1903, 1.74444 13.1903, 1.24064 13.1903, 0.729181 13.2047, 0.210078 13.2335, 0.135856 13.2335, 0.0814267 13.2119, 0.0467899 13.1687, 0.0126029 13.1354, -0.00494046 13.0994, -0.00494046 13.0607, -0.00494046 13.0324, 7.66106e-006 13.0036, 0.0099039 12.9744 L 0.0391428 12.8664 C 0.0787277 12.7085, 0.175441 12.6316, 0.328383 12.6361, 0.516411 12.6365, 0.693194 12.6221, 0.858731 12.5934, 1.02427 12.5646, 1.17901 12.5047, 1.32206 12.413, 1.43586 12.3415, 1.52853 12.247, 1.60005 12.1291, 1.67157 12.0117, 1.72465 11.8858, 1.75929 11.7508 L 3.74573 4.04976 C 3.77542 3.94449, 3.79027 3.86308, 3.79027 3.80505, 3.79027 3.74792, 3.77812 3.71418, 3.75338 3.70429, 3.68411 3.66155, 3.54961 3.63546, 3.34943 3.62557, 3.14926 3.61612, 2.93289 3.61117, 2.70078 3.61072, 2.56763 3.61117, 2.49566 3.5464, 2.48576 3.4164 L 2.48576 3.36601, 2.51545 3.23646 C 2.56988 3.09297, 2.66614 3.021, 2.80424 3.02055 L 5.20633 3.02055 C 5.36467 3.021, 5.45329 3.09792, 5.47308 3.25086 L 6.31831 11.4773, 11.4185 3.22207 C 11.4927 3.08802, 11.6065 3.021, 11.7594 3.02055 L 14.1615 3.02055 C 14.2308 3.021, 14.2902 3.04484, 14.3392 3.09252, 14.359 3.1312, 14.3689 3.16719, 14.3689 3.20048, 14.3689 3.22972, 14.3617 3.25626, 14.3469 3.27965 Z" stroke="none" fill="#000000" />
			<rect />
		</svg>
	</g>
	<path d="M 58.9271 -42.8779 L 66.2045 -30.4615 C 68.5753 -25.3087, 70.3367 -19.8962, 71.4525 -14.335 L 72.8762 -2.91226e-005" fill="none" stroke="#000000" stroke-width="1.80000007" stroke-linecap="round" stroke-linejoin="round" marker-start="url(#CustomMarker-03)" marker-end="url(#CustomMarker-04)" transform="matrix(0.416667 0 -0 0.416667 38.0088 169.753)" />
	<path d="M 0 0 L 145.753 -106.056" fill="none" stroke="#000000" stroke-width="1.20000005" stroke-linecap="round" stroke-linejoin="round" stroke-dasharray="6.606, 2.994, 0.012, 3.588" transform="matrix(0.416667 0 -0 0.416667 38.0088 169.753)" />
	<path d="M 0 0 L 153.04 0" fill="none" stroke="#000000" stroke-width="1.20000005" stroke-linecap="round" stroke-linejoin="round" stroke-dasharray="6.606, 2.994, 0.012, 3.588" transform="matrix(0.416667 0 -0 0.416667 38.0088 169.753)" />
	<g transform="matrix(1 0 -0 1 78.0508 147.91)">
		<svg width="29.9581337" height="26.8824692">
			<defs />
			<path d="M 8.66169 7.52603 C 8.484 8.19808, 8.2321 8.84628, 7.90552 9.46975, 7.5794 10.0937, 7.19389 10.6595, 6.74901 11.1679, 6.74901 11.4036, 6.75396 11.6316, 6.76386 11.852, 6.77375 12.0729, 6.79625 12.2659, 6.83088 12.4314, 6.86552 12.597, 6.91005 12.7207, 6.96403 12.8021, 7.01846 12.8839, 7.08998 12.9244, 7.17905 12.924, 7.34234 12.9244, 7.49798 12.8597, 7.64642 12.7301, 7.79487 12.6006, 7.89113 12.4445, 7.93521 12.2618, 7.9649 12.1278, 8.05172 12.0608, 8.19476 12.0603 L 8.28383 12.0603 C 8.39764 12.0608, 8.45926 12.1183, 8.46916 12.233 L 8.46916 12.2834 C 8.43452 12.4373, 8.3729 12.5817, 8.28383 12.7157, 8.19476 12.8502, 8.08726 12.969, 7.9613 13.072, 7.83535 13.175, 7.69815 13.2551, 7.54971 13.3126, 7.40172 13.3702, 7.24608 13.399, 7.08279 13.399, 6.65275 13.399, 6.32662 13.2699, 6.10441 13.0108, 5.88219 12.7517, 5.7387 12.4805, 5.67437 12.1971, 5.24434 12.5479, 4.75267 12.8358, 4.19893 13.0612, 3.64564 13.2865, 3.06986 13.399, 2.47159 13.399, 2.03705 13.399, 1.64165 13.3104, 1.28584 13.1332, 0.930025 12.9559, 0.648432 12.7013, 0.440611 12.3698, 0.218396 12.0486, 0.0798484 11.6771, 0.0254191 11.2542, 0.00562662 11.1346, -0.00426966 11.005, -0.00426966 10.8656, -0.00426966 10.5781, 0.0380143 10.2808, 0.121683 9.9731, 0.240437 9.52732, 0.429815 9.09909, 0.688917 8.68884, 0.948468 8.2786, 1.271 7.90794, 1.65605 7.57642, 2.03211 7.26963, 2.43875 7.02627, 2.87599 6.84634, 3.31322 6.66641, 3.74955 6.57645, 4.18409 6.57599, 4.59928 6.57645, 4.96634 6.65472, 5.28482 6.81036, 5.60375 6.96645, 5.8732 7.17652, 6.09316 7.44012, 6.31313 7.70417, 6.47732 8.0123, 6.58618 8.36497, 6.69503 8.71763, 6.74901 9.08829, 6.74901 9.47649 L 6.74901 10.4265 C 7.01126 10.0865, 7.27306 9.65238, 7.53487 9.12428, 7.79667 8.59663, 7.99684 8.05683, 8.13539 7.50444, 8.16508 7.37039, 8.25189 7.30112, 8.39494 7.29572 L 8.46916 7.29572 C 8.59781 7.29617, 8.66169 7.35375, 8.66169 7.46846 L 8.66169 7.52603 Z M 5.57766 11.6861 C 5.57316 11.6528, 5.56821 11.6028, 5.56326 11.5354, 5.55832 11.4683, 5.55562 11.4009, 5.55562 11.3334 L 5.55562 9.714 C 5.55562 9.36404, 5.53223 9.02981, 5.48544 8.71043, 5.43866 8.39151, 5.36174 8.10721, 5.25558 7.85756, 5.14942 7.60835, 5.00323 7.41268, 4.8179 7.27098, 4.63257 7.12973, 4.39191 7.05866, 4.09502 7.05821, 3.81838 7.05866, 3.53903 7.13198, 3.25744 7.27818, 2.97585 7.42482, 2.72394 7.625, 2.50128 7.8787, 2.22463 8.18638, 2.01321 8.52106, 1.86747 8.88317, 1.72172 9.24573, 1.59937 9.62089, 1.50041 10.0091, 1.4019 10.3932, 1.33037 10.763, 1.28539 11.1175, 1.27549 11.2092, 1.27055 11.3001, 1.27055 11.391, 1.27055 11.6456, 1.31283 11.8903, 1.39695 12.1251, 1.49096 12.3653, 1.63671 12.5587, 1.83418 12.7049, 2.03211 12.8516, 2.26917 12.9244, 2.54581 12.924, 3.1045 12.9244, 3.64204 12.8142, 4.15845 12.5934, 4.67485 12.3729, 5.14807 12.0702, 5.57766 11.6861 Z" stroke="none" fill="#000000" />
			<rect />
		</svg>
	</g>
	<ellipse cx="857.45344257354736" cy="453.16468524932861" rx="6.3000001907348633" ry="6.3000001907348633" stroke="none" fill="#000000" transform="matrix(0.416667 0 0 0.416667 -218.333 -46.6667)" />
	<path d="M 0 0 L -1.77294 -17.727 C -4.30767 -69.286, 16.913 -110.004, 42.5886 -135.55 L 51.56 -143.726" fill="none" stroke="#2ECC00" stroke-width="2.4000001" stroke-linecap="round" stroke-linejoin="round" stroke-dasharray="8.412, 5.988" marker-start="url(#CustomMarker-05)" marker-end="url(#CustomMarker-06)" transform="matrix(0.416667 0 0 0.416667 138.939 141.772)" />
	<g transform="matrix(1 0 -0 1 209.331 49.2815)">
		<svg width="21.0837173" height="26.8824692">
			<defs />
			<path d="M 5.30079 8.22417 C 5.2567 8.41175, 5.16044 8.55479, 5.012 8.65286, 4.86355 8.75137, 4.71781 8.8004, 4.57431 8.79995, 4.42632 8.8004, 4.30756 8.74777, 4.2185 8.64161, 4.14473 8.57009, 4.10514 8.47427, 4.10019 8.35372, 4.10019 8.30154, 4.10514 8.24846, 4.11459 8.19538, 4.15957 8.02804, 4.24459 7.89849, 4.37054 7.80718, 4.49649 7.71631, 4.59905 7.66323, 4.67822 7.64839, 4.64404 7.49994, 4.52798 7.36455, 4.33006 7.24219, 4.13213 7.11984, 3.89507 7.05866, 3.61798 7.05821, 3.45019 7.05866, 3.2896 7.07665, 3.13621 7.11264, 2.98327 7.14863, 2.83977 7.21925, 2.70617 7.32451, 2.58292 7.41628, 2.48171 7.52783, 2.40254 7.65963, 2.32337 7.79188, 2.26669 7.93178, 2.23205 8.08022, 2.20236 8.16209, 2.18752 8.24396, 2.18752 8.32493, 2.18752 8.45988, 2.22711 8.58673, 2.30583 8.70639, 2.41963 8.88452, 2.59282 8.99473, 2.82493 9.03746 L 3.56625 9.1958 C 3.80825 9.24888, 4.02687 9.34019, 4.2221 9.46975, 4.41732 9.5993, 4.57566 9.75539, 4.69667 9.93757, 4.81812 10.1202, 4.90314 10.3262, 4.95262 10.5561, 4.96252 10.6478, 4.96746 10.7342, 4.96746 10.8152, 4.96746 10.969, 4.94542 11.1301, 4.90044 11.2974, 4.81677 11.5763, 4.69307 11.8547, 4.53023 12.1327, 4.36739 12.4112, 4.14743 12.6509, 3.87033 12.852, 3.56895 13.0634, 3.25496 13.2074, 2.92884 13.2838, 2.60271 13.3608, 2.28873 13.399, 1.98735 13.399, 1.68596 13.399, 1.40527 13.3585, 1.14572 13.2766, 0.886615 13.1952, 0.660351 13.0747, 0.467824 12.9136, 0.275297 12.753, 0.143947 12.5574, 0.0746731 12.3266, 0.0305899 12.2119, 0.0058493 12.0873, 0.000451356 11.9524, 0.000451356 11.8282, 0.0179947 11.6959, 0.0521817 11.5565, 0.107061 11.341, 0.216819 11.1791, 0.382356 11.0711, 0.547893 10.9632, 0.71478 10.9092, 0.882566 10.9087, 1.05575 10.9092, 1.20419 10.9645, 1.32745 11.0743, 1.41157 11.1562, 1.4561 11.2619, 1.46105 11.391, 1.46105 11.4584, 1.4489 11.5259, 1.42371 11.5925, 1.36973 11.8039, 1.25952 11.9636, 1.09399 12.0716, 0.928449 12.1795, 0.79395 12.2357, 0.690039 12.2402, 0.744469 12.4184, 0.900109 12.5767, 1.15696 12.7157, 1.41426 12.8552, 1.7179 12.9244, 2.06877 12.924, 2.28648 12.9244, 2.50015 12.9019, 2.71022 12.8561, 2.92029 12.8106, 3.11192 12.7207, 3.28465 12.5857, 3.45289 12.471, 3.59009 12.332, 3.69625 12.1687, 3.80241 12.0059, 3.87798 11.8282, 3.92206 11.6357, 3.95175 11.5498, 3.96659 11.4584, 3.96659 11.3622, 3.96659 11.1804, 3.90992 11.0172, 3.79611 10.8728, 3.63327 10.6622, 3.40071 10.5205, 3.09932 10.4481 L 2.35801 10.2826 C 1.92302 10.1917, 1.60184 9.97355, 1.39402 9.62764, 1.25592 9.41217, 1.18665 9.16971, 1.18665 8.90071, 1.18665 8.74777, 1.20644 8.59168, 1.24603 8.43289, 1.31035 8.18863, 1.41291 7.94393, 1.55371 7.69922, 1.69451 7.45451, 1.88479 7.24129, 2.12454 7.05866, 2.3643 6.87648, 2.62385 6.75053, 2.90275 6.68081, 3.18209 6.61153, 3.45019 6.57645, 3.70704 6.57599, 3.9594 6.57645, 4.19556 6.61513, 4.41507 6.6916, 4.63504 6.76852, 4.82307 6.88008, 4.97871 7.02627, 5.13435 7.17292, 5.24681 7.3443, 5.31563 7.54043, 5.33542 7.64659, 5.34532 7.75185, 5.34532 7.85711, 5.34532 7.97271, 5.33048 8.09507, 5.30079 8.22417 Z" stroke="none" fill="#2ECC00" />
			<rect />
		</svg>
	</g>
	<g transform="matrix(1 0 -0 1 175.533 126.126)">
		<svg width="78.0139389" height="30.0556641">
			<defs />
			<path d="M 5.24009 4.76229 L 5.24009 7.24966, 6.6997 7.24966, 6.6997 4.76229 Z M 0.900142 1.92944 L 1.47017 2.24036, 2.85636 2.24036 C 2.85636 1.38965, 2.84556 0.733257, 2.82181 0.271193 L 3.64014 0.651208, 3.31842 0.893036, 3.31842 2.24036, 4.77803 2.24036 C 4.77803 1.29896, 4.76723 0.642571, 4.74348 0.271193 L 5.59636 0.685755, 5.24009 0.893036, 5.24009 2.24036, 6.62844 2.24036, 6.948 1.8949, 7.51803 2.34401, 7.19847 2.58583 C 7.19847 5.58277, 7.21142 7.34466, 7.23301 7.8715 L 6.6997 8.11333, 6.6997 7.45694, 1.43346 7.45694, 1.43346 8.00969, 0.900142 8.25152 C 0.923893 7.17193, 0.934689 6.0945, 0.934689 5.02355, 0.934689 3.95259, 0.923893 2.92267, 0.900142 1.92944 Z M 1.43346 2.44765 L 1.43346 4.555, 2.85636 4.555, 2.85636 2.44765 Z M 3.31842 2.44765 L 3.31842 4.555, 4.77803 4.555, 4.77803 2.44765 Z M 5.24009 2.44765 L 5.24009 4.555, 6.6997 4.555, 6.6997 2.44765 Z M 1.43346 4.76229 L 1.43346 7.24966, 2.85636 7.24966, 2.85636 4.76229 Z M 3.31842 4.76229 L 3.31842 7.24966, 4.77803 7.24966, 4.77803 4.76229 Z" stroke="none" fill="#000000" />
			<path d="M 8.94419 2.37855 L 9.01544 2.27491 C 9.44296 2.41526, 9.74092 2.54265, 9.90718 2.65709, 10.0734 2.77368, 10.1555 2.89891, 10.1555 3.03494, 10.1555 3.1062, 10.1274 3.20984, 10.067 3.34802, 10.0065 3.48621, 9.95252 3.5553, 9.90502 3.55315, 9.85752 3.5553, 9.79922 3.47541, 9.72797 3.31132, 9.58546 3.06085, 9.3242 2.74993, 8.94419 2.37855 Z M 8.48212 4.96957 C 8.79088 4.90263, 9.47966 4.56796, 10.5463 3.96771 L 10.6175 4.07135 C 10.2634 4.32613, 9.92445 4.58739, 9.60489 4.85081, 9.28534 5.11639, 9.0651 5.35174, 8.94419 5.55686 Z M 15.1 2.75857 C 14.7221 3.0371, 14.2838 3.33723, 13.7851 3.65679 L 13.7138 3.55315 C 14.2363 3.07165, 14.6271 2.58799, 14.8884 2.10218 L 15.4563 2.65493 Z M 13.8563 4.07135 L 13.8909 3.96771 C 14.7221 4.17715, 15.208 4.34556, 15.3505 4.4708, 15.493 4.59819, 15.5642 4.74069, 15.5642 4.90047, 15.5642 5.01707, 15.547 5.12719, 15.5102 5.23083, 15.4757 5.33447, 15.4325 5.38629, 15.385 5.38413, 15.3159 5.38629, 15.2209 5.27185, 15.1 5.03866, 14.8884 4.7191, 14.4738 4.39523, 13.8563 4.07135 Z M 12.183 2.13672 C 11.5676 2.69163, 11.1638 3.0371, 10.9738 3.17313, 11.4488 3.17529, 11.9692 3.16449, 12.5392 3.13858, 12.8242 2.84062, 13.038 2.54265, 13.1805 2.24036 L 13.7484 2.75857 C 13.5584 2.80607, 13.1805 3.0954, 12.6105 3.62224, 12.0404 4.1534, 11.5784 4.55716, 11.2221 4.83138, 11.8634 4.80979, 12.5155 4.7882, 13.1805 4.76229, 13.0855 4.60251, 12.943 4.39523, 12.753 4.14044 L 12.8242 4.07135 C 13.2517 4.30454, 13.5346 4.48807, 13.6771 4.62626, 13.8196 4.76445, 13.8909 4.87888, 13.8909 4.96957, 13.8909 5.04082, 13.8434 5.14446, 13.7484 5.28265, 13.6534 5.42084, 13.5821 5.48993, 13.5346 5.48777, 13.513 5.48993, 13.4893 5.45538, 13.4633 5.38413, 13.4158 5.2481, 13.3468 5.08616, 13.2517 4.90047, 13.0142 4.92638, 12.6234 4.97173, 12.0772 5.03866 L 12.6817 5.38413, 12.4313 5.55686, 12.4313 6.17871, 15.2792 6.17871, 15.7413 5.7296, 16.3826 6.38599, 12.4313 6.38599 C 12.4313 7.4008, 12.4442 8.02265, 12.468 8.25152 L 11.9346 8.42425 C 11.9584 7.82616, 11.9692 7.14818, 11.9692 6.38599 L 9.30045 6.38599 C 8.99385 6.38815, 8.70883 6.42269, 8.44757 6.48963 L 8.12586 6.17871, 11.9692 6.17871, 11.9692 5.07321 C 11.4488 5.14446, 11.0688 5.2589, 10.8313 5.41868 L 10.475 4.83138 C 10.7838 4.83354, 11.1271 4.65001, 11.5071 4.28079, 11.8871 3.91373, 12.1959 3.58985, 12.4313 3.31132, 11.5546 3.40632, 10.9976 3.53155, 10.7601 3.69133 L 10.475 3.13858 C 10.6651 3.16449, 10.9155 2.98096, 11.2221 2.58799, 11.5309 2.19718, 11.7317 1.89705, 11.8267 1.68761 L 9.76251 1.68761 C 9.45591 1.68977, 9.1709 1.72432, 8.90964 1.79125 L 8.59008 1.48033, 12.1117 1.48033 C 12.0642 1.09168, 11.8634 0.711665, 11.5071 0.340286 L 11.5784 0.271193 C 12.0534 0.456882, 12.3449 0.614502, 12.4507 0.739735, 12.5587 0.867126, 12.6105 0.964289, 12.6105 1.03122, 12.6105 1.17157, 12.5155 1.32055, 12.3255 1.48033 L 14.8517 1.48033, 15.3138 1.06577, 15.9205 1.68761, 12.0404 1.68761, 12.5025 2.06763 Z" stroke="none" fill="#000000" />
			<path d="M 18.9099 3.20768 C 18.9336 2.79527, 18.9444 2.49083, 18.9444 2.29434, 18.9444 2.10002, 18.9336 1.80421, 18.9099 1.41124 L 19.4086 1.68761, 21.5786 1.68761, 21.7924 1.37669, 22.3257 1.75671, 22.0774 1.96399 C 22.0774 2.42605, 22.0903 2.77152, 22.1119 3.0004 L 21.6131 3.17313, 21.6131 2.86221, 19.4086 2.86221, 19.4086 3.03494 Z M 18.519 3.34586 L 19.0157 3.58769, 21.8636 3.58769, 22.1119 3.31132, 22.6452 3.69133, 22.3624 3.89861 C 22.3624 4.75365, 22.3753 5.32799, 22.3969 5.62596 L 21.8982 5.86779, 21.8982 3.79497, 19.0157 3.79497, 19.0157 5.7296, 18.519 5.97143 C 18.5428 5.46618, 18.5536 5.01275, 18.5536 4.60898, 18.5536 4.20738, 18.5428 3.78634, 18.519 3.34586 Z M 20.2615 4.14044 L 20.974 4.52046 C 20.8315 4.63705, 20.702 4.94798, 20.5832 5.45322, 20.4407 5.96279, 20.1751 6.36656, 19.7822 6.66452, 19.3914 6.96465, 18.8516 7.21727, 18.1628 7.42239 L 18.0915 7.28421 C 18.9941 6.9409, 19.5749 6.51554, 19.8361 6.00813, 20.0974 5.50288, 20.2399 4.87888, 20.2615 4.14044 Z M 20.8315 5.76415 C 21.6866 5.99734, 22.2307 6.18734, 22.4682 6.33633, 22.7057 6.48747, 22.7964 6.67748, 22.7359 6.90635, 22.6755 7.13738, 22.6215 7.25182, 22.574 7.24966, 22.5049 7.25182, 22.4207 7.18273, 22.3257 7.04238, 22.1141 6.79191, 21.5916 6.39894, 20.7603 5.86779 Z M 19.4086 1.8949 L 19.4086 2.65493, 21.6131 2.65493, 21.6131 1.8949 Z M 17.0249 8.35516 C 17.0486 7.84991, 17.0594 7.44831, 17.0594 7.14602 L 17.0594 1.72216 C 17.0594 1.44795, 17.0486 1.05713, 17.0249 0.547568 L 17.5582 0.823943, 23.3211 0.823943, 23.6061 0.478474, 24.1761 0.927583, 23.8565 1.16941, 23.8565 7.04238 C 23.8565 7.32091, 23.8695 7.66422, 23.8911 8.07878 L 23.3578 8.32061, 23.3578 7.69877, 17.5582 7.69877, 17.5582 8.11333 Z M 17.5582 1.03122 L 17.5582 7.49149, 23.3578 7.49149, 23.3578 1.03122 Z" stroke="none" fill="#000000" />
			<rect />
		</svg>
	</g>
	<path d="M 0 0 L 58.6304 65.8066" fill="none" stroke="#DB008B" stroke-width="0.800000072" stroke-linecap="round" stroke-linejoin="round" marker-start="url(#CustomMarker-07)" marker-end="url(#CustomMarker-08)" transform="matrix(0.416667 0 0 0.416667 160.558 82.0385)" />
	<g transform="matrix(1 0 -0 1 179.58 90.945)">
		<svg width="101.958122" height="30.0556641">
			<defs />
			<path d="M 5.24009 4.76229 L 5.24009 7.24966, 6.6997 7.24966, 6.6997 4.76229 Z M 0.900142 1.92944 L 1.47017 2.24036, 2.85636 2.24036 C 2.85636 1.38965, 2.84556 0.733257, 2.82181 0.271193 L 3.64014 0.651208, 3.31842 0.893036, 3.31842 2.24036, 4.77803 2.24036 C 4.77803 1.29896, 4.76723 0.642571, 4.74348 0.271193 L 5.59636 0.685755, 5.24009 0.893036, 5.24009 2.24036, 6.62844 2.24036, 6.948 1.8949, 7.51803 2.34401, 7.19847 2.58583 C 7.19847 5.58277, 7.21142 7.34466, 7.23301 7.8715 L 6.6997 8.11333, 6.6997 7.45694, 1.43346 7.45694, 1.43346 8.00969, 0.900142 8.25152 C 0.923893 7.17193, 0.934689 6.0945, 0.934689 5.02355, 0.934689 3.95259, 0.923893 2.92267, 0.900142 1.92944 Z M 1.43346 2.44765 L 1.43346 4.555, 2.85636 4.555, 2.85636 2.44765 Z M 3.31842 2.44765 L 3.31842 4.555, 4.77803 4.555, 4.77803 2.44765 Z M 5.24009 2.44765 L 5.24009 4.555, 6.6997 4.555, 6.6997 2.44765 Z M 1.43346 4.76229 L 1.43346 7.24966, 2.85636 7.24966, 2.85636 4.76229 Z M 3.31842 4.76229 L 3.31842 7.24966, 4.77803 7.24966, 4.77803 4.76229 Z" stroke="none" fill="#000000" />
			<path d="M 8.94419 2.37855 L 9.01544 2.27491 C 9.44296 2.41526, 9.74092 2.54265, 9.90718 2.65709, 10.0734 2.77368, 10.1555 2.89891, 10.1555 3.03494, 10.1555 3.1062, 10.1274 3.20984, 10.067 3.34802, 10.0065 3.48621, 9.95252 3.5553, 9.90502 3.55315, 9.85752 3.5553, 9.79922 3.47541, 9.72797 3.31132, 9.58546 3.06085, 9.3242 2.74993, 8.94419 2.37855 Z M 8.48212 4.96957 C 8.79088 4.90263, 9.47966 4.56796, 10.5463 3.96771 L 10.6175 4.07135 C 10.2634 4.32613, 9.92445 4.58739, 9.60489 4.85081, 9.28534 5.11639, 9.0651 5.35174, 8.94419 5.55686 Z M 15.1 2.75857 C 14.7221 3.0371, 14.2838 3.33723, 13.7851 3.65679 L 13.7138 3.55315 C 14.2363 3.07165, 14.6271 2.58799, 14.8884 2.10218 L 15.4563 2.65493 Z M 13.8563 4.07135 L 13.8909 3.96771 C 14.7221 4.17715, 15.208 4.34556, 15.3505 4.4708, 15.493 4.59819, 15.5642 4.74069, 15.5642 4.90047, 15.5642 5.01707, 15.547 5.12719, 15.5102 5.23083, 15.4757 5.33447, 15.4325 5.38629, 15.385 5.38413, 15.3159 5.38629, 15.2209 5.27185, 15.1 5.03866, 14.8884 4.7191, 14.4738 4.39523, 13.8563 4.07135 Z M 12.183 2.13672 C 11.5676 2.69163, 11.1638 3.0371, 10.9738 3.17313, 11.4488 3.17529, 11.9692 3.16449, 12.5392 3.13858, 12.8242 2.84062, 13.038 2.54265, 13.1805 2.24036 L 13.7484 2.75857 C 13.5584 2.80607, 13.1805 3.0954, 12.6105 3.62224, 12.0404 4.1534, 11.5784 4.55716, 11.2221 4.83138, 11.8634 4.80979, 12.5155 4.7882, 13.1805 4.76229, 13.0855 4.60251, 12.943 4.39523, 12.753 4.14044 L 12.8242 4.07135 C 13.2517 4.30454, 13.5346 4.48807, 13.6771 4.62626, 13.8196 4.76445, 13.8909 4.87888, 13.8909 4.96957, 13.8909 5.04082, 13.8434 5.14446, 13.7484 5.28265, 13.6534 5.42084, 13.5821 5.48993, 13.5346 5.48777, 13.513 5.48993, 13.4893 5.45538, 13.4633 5.38413, 13.4158 5.2481, 13.3468 5.08616, 13.2517 4.90047, 13.0142 4.92638, 12.6234 4.97173, 12.0772 5.03866 L 12.6817 5.38413, 12.4313 5.55686, 12.4313 6.17871, 15.2792 6.17871, 15.7413 5.7296, 16.3826 6.38599, 12.4313 6.38599 C 12.4313 7.4008, 12.4442 8.02265, 12.468 8.25152 L 11.9346 8.42425 C 11.9584 7.82616, 11.9692 7.14818, 11.9692 6.38599 L 9.30045 6.38599 C 8.99385 6.38815, 8.70883 6.42269, 8.44757 6.48963 L 8.12586 6.17871, 11.9692 6.17871, 11.9692 5.07321 C 11.4488 5.14446, 11.0688 5.2589, 10.8313 5.41868 L 10.475 4.83138 C 10.7838 4.83354, 11.1271 4.65001, 11.5071 4.28079, 11.8871 3.91373, 12.1959 3.58985, 12.4313 3.31132, 11.5546 3.40632, 10.9976 3.53155, 10.7601 3.69133 L 10.475 3.13858 C 10.6651 3.16449, 10.9155 2.98096, 11.2221 2.58799, 11.5309 2.19718, 11.7317 1.89705, 11.8267 1.68761 L 9.76251 1.68761 C 9.45591 1.68977, 9.1709 1.72432, 8.90964 1.79125 L 8.59008 1.48033, 12.1117 1.48033 C 12.0642 1.09168, 11.8634 0.711665, 11.5071 0.340286 L 11.5784 0.271193 C 12.0534 0.456882, 12.3449 0.614502, 12.4507 0.739735, 12.5587 0.867126, 12.6105 0.964289, 12.6105 1.03122, 12.6105 1.17157, 12.5155 1.32055, 12.3255 1.48033 L 14.8517 1.48033, 15.3138 1.06577, 15.9205 1.68761, 12.0404 1.68761, 12.5025 2.06763 Z" stroke="none" fill="#000000" />
			<path d="M 17.6338 1.20396 C 18.2513 1.55159, 18.6745 1.82364, 18.8991 2.01797, 19.1237 2.21445, 19.2359 2.39151, 19.2359 2.55129, 19.2359 2.64629, 19.1949 2.7672, 19.1129 2.91619, 19.0308 3.06733, 18.9639 3.14074, 18.9164 3.13858, 18.8451 3.14074, 18.7847 3.07165, 18.7372 2.9313, 18.6206 2.68084, 18.4716 2.42821, 18.2924 2.17343, 18.1153 1.92081, 17.8584 1.63148, 17.5259 1.3076 Z M 22.6928 0.96213 L 23.4399 1.51488 C 23.2023 1.60988, 22.9368 1.7891, 22.6388 2.05252, 22.343 2.31809, 21.922 2.71538, 21.3735 3.24222 L 21.231 3.17313 C 21.5635 2.78448, 21.855 2.39798, 22.1055 2.01797, 22.3559 1.63795, 22.5503 1.28601, 22.6928 0.96213 Z M 20.1277 3.55315 L 20.1277 1.44579 C 20.1277 1.24066, 20.1169 0.860649, 20.091 0.305739 L 20.9115 0.720302, 20.6264 0.996677, 20.6264 3.55315, 22.8353 3.55315, 23.2973 3.10404, 23.9753 3.76043, 20.6264 3.76043, 20.6264 5.38413, 23.3341 5.38413, 23.8674 4.86593, 24.6166 5.59141, 20.6264 5.59141, 20.6264 6.86965 C 20.6264 7.26262, 20.6394 7.68797, 20.661 8.14788 L 20.091 8.38971 C 20.1169 7.90605, 20.1277 7.4699, 20.1277 7.07693 L 20.1277 5.59141, 17.5971 5.59141 C 17.2905 5.59357, 17.0055 5.62812, 16.7421 5.69505 L 16.4225 5.38413, 20.1277 5.38413, 20.1277 3.76043, 18.0959 3.76043 C 17.7893 3.76259, 17.5043 3.79713, 17.2409 3.86407 L 16.9213 3.55315 Z" stroke="none" fill="#000000" />
			<path d="M 26.6732 0.340286 L 27.3857 0.85849, 27.0295 0.996677 C 26.2479 1.92081, 25.5224 2.5772, 24.8573 2.96585 L 24.7861 2.86221 C 25.2374 2.4498, 25.6282 2.01365, 25.9607 1.55159, 26.2932 1.09168, 26.5307 0.687914, 26.6732 0.340286 Z M 26.2111 8.42425 C 26.2349 7.91901, 26.2457 7.4699, 26.2457 7.07693 L 26.2457 4.27863 C 25.7707 4.7882, 25.2136 5.29344, 24.5723 5.79869 L 24.5011 5.6605 C 24.9523 5.2481, 25.4274 4.70831, 25.9261 4.03896, 26.4249 3.37177, 26.792 2.76073, 27.0295 2.20582 L 27.742 2.68947, 27.3512 2.89675 C 27.1612 3.1062, 26.9604 3.38257, 26.7445 3.72588 L 26.7445 8.18243 Z M 31.2334 1.37669 C 30.9268 1.79341, 30.5813 2.20798, 30.2013 2.62038, 30.8901 2.85357, 31.4364 3.06085, 31.8401 3.24438, 32.2439 3.43007, 32.4879 3.59633, 32.5699 3.74531, 32.6541 3.89646, 32.6952 4.00441, 32.6952 4.07135, 32.6952 4.16635, 32.6714 4.24192, 32.6239 4.29806, 32.5764 4.35636, 32.5419 4.38443, 32.5159 4.38227, 32.3734 4.38443, 32.1726 4.23545, 31.9114 3.93316, 31.5551 3.5661, 30.9484 3.17529, 30.0933 2.75857, 29.2642 3.54451, 28.2904 4.1534, 27.172 4.58955 L 27.1007 4.48591 C 27.7917 4.1426, 28.4265 3.71724, 29.0073 3.20984, 29.5903 2.70459, 30.1538 2.04604, 30.7001 1.2385 L 28.9533 1.2385 C 28.6467 1.24066, 28.3617 1.27521, 28.0983 1.34215 L 27.7787 1.03122, 30.7346 1.03122, 31.0196 0.720302, 31.5897 1.20396 Z M 27.742 4.72774 L 30.9851 4.72774, 31.4126 4.31318, 32.0539 4.93502, 30.1646 4.93502, 30.1646 7.52604, 31.6609 7.52604, 32.1251 7.07693, 32.801 7.73332, 28.42 7.73332 C 28.1112 7.73332, 27.8262 7.76786, 27.5649 7.83696 L 27.2432 7.52604, 29.6658 7.52604, 29.6658 4.93502, 28.5258 4.93502, 28.027 5.00411 Z" stroke="none" fill="#000000" />
			<rect />
		</svg>
	</g>
	<g transform="matrix(1 0 -0 1 229.297 60.9964)">
		<svg width="111.167427" height="77.9876022">
			<defs />
			<path d="M 2.82325 7.42805 C 2.76682 7.64789, 2.67775 7.85792, 2.55654 8.05814, 2.43534 8.25835, 2.29229 8.43648, 2.1279 8.59204, 1.96351 8.74785, 1.77899 8.87421, 1.57412 8.97088, 1.36924 9.0678, 1.15627 9.11613, 0.934951 9.11613, 0.802946 9.11613, 0.681738 9.09209, 0.57108 9.04351, 0.460667 8.99517, 0.370374 8.92966, 0.300201 8.84722, 0.230028 8.76478, 0.182918 8.66737, 0.158628 8.55475, 0.147832 8.50518, 0.142434 8.45415, 0.142434 8.40164, 0.142434 8.33368, 0.150531 8.26424, 0.166725 8.19357, 0.196413 8.0758, 0.257017 7.98747, 0.348783 7.92859, 0.440548 7.8697, 0.530841 7.84025, 0.619661 7.84025, 0.714126 7.84025, 0.793623 7.87043, 0.858153 7.93055, 0.904035 7.9752, 0.926854 8.03262, 0.926854 8.10328, 0.926854 8.13223, 0.921456 8.16757, 0.91066 8.20928, 0.881217 8.32705, 0.820612 8.41538, 0.728847 8.47427, 0.637082 8.53316, 0.564455 8.5626, 0.510476 8.5626, 0.52667 8.63326, 0.577214 8.69951, 0.662109 8.76085, 0.747004 8.82244, 0.855454 8.85311, 0.987458 8.85311, 1.1332 8.85311, 1.26938 8.81385, 1.39598 8.73533, 1.52284 8.65682, 1.63889 8.55156, 1.74391 8.41931, 1.84892 8.2873, 1.94118 8.1342, 2.02067 7.95999, 2.10017 7.78603, 2.16421 7.60348, 2.21279 7.41234 L 2.23708 7.31813 C 2.19684 7.35493, 2.11195 7.40278, 1.9824 7.46142, 1.85309 7.5203, 1.71152 7.54975, 1.55768 7.54975, 1.37464 7.54975, 1.21074 7.51589, 1.06646 7.44768, 0.922192 7.37996, 0.808344 7.27519, 0.724676 7.13361, 0.643952 6.98198, 0.60494 6.81464, 0.607393 6.63111 L 0.607393 6.59971 C 0.612791 6.40882, 0.637082 6.21915, 0.680266 6.03047, 0.723449 5.85013, 0.786262 5.65139, 0.868458 5.434, 0.950654 5.21685, 1.02941 5.00609, 1.10474 4.8017, 1.18571 4.5848, 1.22619 4.40667, 1.22619 4.26779, 1.22619 4.15027, 1.17639 4.09138, 1.07652 4.09113, 0.985004 4.09138, 0.902072 4.11763, 0.827973 4.16989, 0.753874 4.2224, 0.6864 4.29503, 0.625795 4.38778, 0.565191 4.48077, 0.510476 4.59069, 0.461894 4.71754, 0.413313 4.84464, 0.373073 4.97983, 0.340686 5.12361, 0.310997 5.19452, 0.261189 5.23108, 0.191015 5.23354 L 0.0980234 5.23354 C 0.033248 5.23378, 0.000860274 5.20115, 0.000860274 5.13539 L 0.000860274 5.10791 C 0.0386459 4.96413, 0.0886996 4.81716, 0.150531 4.66651, 0.212607 4.5161, 0.290877 4.37943, 0.385096 4.25626, 0.47956 4.13334, 0.587519 4.03127, 0.708728 3.95005, 0.829936 3.86908, 0.968811 3.82835, 1.12511 3.82811, 1.26005 3.82835, 1.37513 3.8573, 1.47082 3.91472, 1.56651 3.97238, 1.63938 4.04893, 1.68919 4.14438, 1.73925 4.24007, 1.76673 4.34778, 1.77212 4.46801 L 1.77212 4.49549 C 1.77212 4.60836, 1.74931 4.72466, 1.70318 4.84488, 1.62515 5.04927, 1.54786 5.25807, 1.47082 5.47129, 1.39402 5.68476, 1.33415 5.87638, 1.29097 6.04642, 1.24779 6.2167, 1.2181 6.38526, 1.2019 6.5526, 1.19111 6.59725, 1.18448 6.64584, 1.18178 6.69785, 1.18178 6.80017, 1.19945 6.90101, 1.23429 7.00014, 1.25858 7.08945, 1.30299 7.16011, 1.36777 7.21238, 1.43254 7.26488, 1.50934 7.29089, 1.59816 7.29065, 1.7709 7.29089, 1.92179 7.23986, 2.0511 7.13779, 2.18065 7.03572, 2.29376 6.90224, 2.39068 6.73711 L 3.04162 4.20498 C 3.06616 4.10831, 3.11523 4.03715, 3.18933 3.99127, 3.26343 3.94563, 3.33826 3.92257, 3.41359 3.92233, 3.49186 3.92257, 3.55664 3.94613, 3.60792 3.99299, 3.643 4.02734, 3.66042 4.07298, 3.66042 4.13039, 3.66042 4.15934, 3.65773 4.18952, 3.65233 4.22068 Z" stroke="none" fill="#000000" />
			<polyline points="-2.814 -0.8442 2.814 -0.8442" fill="none" stroke="#000000" stroke-width="0.32159999" stroke-linecap="round" stroke-linejoin="round" transform="matrix(1 0 0 1 8.80516 5.04439)" />
			<polyline points="-2.814 0.8442 2.814 0.8442" fill="none" stroke="#000000" stroke-width="0.32159999" stroke-linecap="round" stroke-linejoin="round" transform="matrix(1 0 0 1 8.80516 5.04439)" />
			<path d="M 17.9549 2.40697 C 17.9255 2.52229, 17.8649 2.61087, 17.7731 2.67221, 17.6814 2.7338, 17.5911 2.76447, 17.502 2.76422, 17.4051 2.76447, 17.3271 2.73036, 17.2677 2.66215, 17.222 2.61798, 17.1978 2.56155, 17.1948 2.49334, 17.1948 2.46488, 17.2002 2.42807, 17.211 2.38342, 17.2407 2.28429, 17.2912 2.20578, 17.3626 2.14812, 17.4343 2.0907, 17.4875 2.05905, 17.5224 2.05365, 17.4713 1.99624, 17.3702 1.96753, 17.2191 1.96729, 17.1303 1.96753, 17.0454 2.04482, 16.9644 2.19891, 16.9482 2.22271, 16.9301 2.27571, 16.9099 2.35815, 16.8898 2.44059, 16.8668 2.54143, 16.8412 2.66043, 16.8157 2.77968, 16.7892 2.90579, 16.7622 3.03927, 16.7352 3.17275, 16.7112 3.30107, 16.6896 3.42375 L 16.5885 3.92233, 17.3283 3.92233 C 17.3985 3.92257, 17.4333 3.9579, 17.4333 4.02832 L 17.4333 4.0558, 17.4171 4.12647 C 17.3877 4.20523, 17.3352 4.24448, 17.2596 4.24424 L 16.5237 4.24424, 16.1356 6.19928 C 16.098 6.38281, 16.0576 6.57836, 16.0144 6.78643, 15.9712 6.99449, 15.9241 7.20133, 15.8728 7.4067, 15.8218 7.61207, 15.7631 7.8064, 15.6971 7.98943, 15.6311 8.17272, 15.5605 8.33245, 15.4849 8.46838, 15.4392 8.54444, 15.3872 8.62099, 15.3293 8.69804, 15.2714 8.77533, 15.2074 8.84403, 15.1372 8.90414, 15.067 8.9645, 14.991 9.0148, 14.9088 9.05528, 14.8266 9.09601, 14.7383 9.11613, 14.6438 9.11613, 14.539 9.11613, 14.4406 9.0992, 14.3489 9.0651, 14.2573 9.03124, 14.1786 8.98413, 14.1123 8.92377, 14.0466 8.86366, 13.9973 8.79029, 13.9646 8.70393, 13.9543 8.65682, 13.9489 8.60971, 13.9487 8.5626, 13.9489 8.51819, 13.9543 8.46985, 13.9646 8.41734, 13.9946 8.29957, 14.0566 8.21124, 14.1509 8.15235, 14.2453 8.09347, 14.3383 8.06402, 14.4296 8.06402, 14.5243 8.06402, 14.6023 8.09543, 14.6642 8.15824, 14.71 8.2029, 14.7329 8.25909, 14.7329 8.32705, 14.7329 8.356, 14.7275 8.39256, 14.7167 8.43697, 14.6872 8.53659, 14.6359 8.61633, 14.5633 8.67645, 14.4907 8.7368, 14.4367 8.76944, 14.4014 8.77459, 14.4475 8.8271, 14.5417 8.85311, 14.6843 8.85311, 14.7544 8.85311, 14.82 8.81385, 14.8806 8.73533, 14.9412 8.65682, 14.9902 8.54959, 15.028 8.41342, 15.1222 8.0942, 15.2079 7.74039, 15.2847 7.35174, 15.3617 6.96309, 15.4378 6.58425, 15.5131 6.21498 L 15.9133 4.24424, 15.307 4.24424 C 15.2665 4.24448, 15.2368 4.23148, 15.2179 4.20498, 15.2017 4.18952, 15.1936 4.16989, 15.1936 4.14609, 15.1936 4.13064, 15.1978 4.11616, 15.2059 4.10291 L 15.2179 4.04402 C 15.2263 4.01016, 15.2444 3.98146, 15.2726 3.9579, 15.3011 3.93435, 15.3313 3.92257, 15.3634 3.92233 L 15.9781 3.92233, 16.0711 3.4316 C 16.0872 3.32978, 16.1088 3.2174, 16.1358 3.09423, 16.1628 2.9713, 16.195 2.84887, 16.2327 2.72717, 16.2705 2.60547, 16.313 2.48843, 16.3601 2.37581, 16.4072 2.26344, 16.4646 2.16775, 16.5318 2.08899, 16.629 1.97661, 16.7409 1.8846, 16.8675 1.81246, 16.9941 1.74057, 17.1276 1.7045, 17.2677 1.70426, 17.3727 1.7045, 17.473 1.72021, 17.5687 1.75161, 17.6644 1.78302, 17.7454 1.8289, 17.8114 1.88902, 17.8776 1.94937, 17.924 2.02127, 17.9508 2.10469, 17.9699 2.14689, 17.9792 2.19523, 17.9792 2.24994, 17.9792 2.2946, 17.9711 2.34711, 17.9549 2.40697 Z" stroke="none" fill="#000000" />
			<path d="M 26.1944 4.48371 C 26.1649 4.60173, 26.1048 4.69006, 26.0145 4.74895, 25.9242 4.80783, 25.8335 4.83728, 25.7417 4.83703, 25.6475 4.83728, 25.5692 4.8071, 25.5071 4.74674, 25.4615 4.70257, 25.4372 4.64491, 25.4343 4.57401, 25.4343 4.54554, 25.4397 4.50874, 25.4504 4.46408, 25.4804 4.36496, 25.5263 4.28963, 25.5881 4.2386, 25.6502 4.18756, 25.6934 4.15812, 25.7174 4.15002, 25.6664 4.11101, 25.5611 4.09138, 25.4021 4.09113, 25.262 4.09138, 25.1366 4.16401, 25.0262 4.30926, 24.9158 4.45451, 24.8334 4.62921, 24.7794 4.83311 L 24.4074 6.26994 C 24.3699 6.41422, 24.3417 6.55162, 24.3225 6.68215, 24.312 6.72681, 24.3066 6.76606, 24.3066 6.79992, 24.3066 6.88138, 24.3201 6.95843, 24.3468 7.03154, 24.3738 7.1103, 24.4143 7.17312, 24.4683 7.22023, 24.5222 7.26734, 24.5909 7.29089, 24.6744 7.29065, 24.7823 7.29089, 24.8861 7.26292, 24.9857 7.20649, 25.0854 7.1503, 25.1771 7.07448, 25.2605 6.97879, 25.3442 6.88335, 25.4183 6.7722, 25.4831 6.6451, 25.5479 6.51825, 25.5989 6.38796, 25.6364 6.25424, 25.6526 6.18652, 25.6985 6.15241, 25.7741 6.15217 L 25.8668 6.15217 C 25.937 6.15241, 25.9721 6.17867, 25.9721 6.23068, 25.9721 6.24663, 25.9682 6.26111, 25.9598 6.27387, 25.9223 6.43114, 25.8609 6.58621, 25.776 6.73932, 25.6911 6.89242, 25.5923 7.02786, 25.4789 7.14564, 25.3658 7.26341, 25.2372 7.36033, 25.093 7.4359, 24.9487 7.51196, 24.7944 7.54975, 24.63 7.54975, 24.4629 7.54975, 24.3186 7.51392, 24.1974 7.44179, 24.0762 7.37014, 23.9778 7.27641, 23.9022 7.16109, 23.8782 7.13263, 23.8593 7.10319, 23.8458 7.07301, 23.8323 7.04308, 23.8281 7.03841, 23.8335 7.05902, 23.7687 7.16649, 23.6664 7.27519, 23.5263 7.38511, 23.3862 7.49503, 23.2245 7.54975, 23.041 7.54975, 22.9387 7.54975, 22.8376 7.53674, 22.738 7.51049, 22.6384 7.48448, 22.5513 7.444, 22.4772 7.38904, 22.4031 7.33407, 22.3471 7.26734, 22.3093 7.18858, 22.2907 7.14171, 22.2814 7.09068, 22.2811 7.03547, 22.2814 6.99646, 22.2868 6.95057, 22.2973 6.89807, 22.327 6.78054, 22.3876 6.69221, 22.4791 6.63332, 22.5709 6.57444, 22.6624 6.54499, 22.7542 6.54475, 22.8484 6.54499, 22.9294 6.57517, 22.9966 6.63504, 23.0425 6.6797, 23.0653 6.73736, 23.0653 6.80777, 23.0653 6.84458, 23.0599 6.88138, 23.0491 6.9177, 23.0251 7.00946, 22.9811 7.08356, 22.9178 7.13975, 22.8545 7.19618, 22.8094 7.22685, 22.7824 7.23176, 22.8337 7.27396, 22.9375 7.29359, 23.0938 7.29065, 23.2339 7.29089, 23.3605 7.21777, 23.4736 7.07105, 23.5869 6.92457, 23.6691 6.74913, 23.7202 6.54475 L 24.0963 5.10006 C 24.1341 4.96413, 24.1635 4.83065, 24.1851 4.69963, 24.1905 4.65792, 24.1932 4.61866, 24.1932 4.58186, 24.1932 4.50089, 24.1812 4.42507, 24.1569 4.35416, 24.1299 4.27589, 24.0882 4.21259, 24.0315 4.16401, 23.9751 4.11567, 23.9049 4.09138, 23.8212 4.09113, 23.7135 4.09138, 23.6093 4.1196, 23.5082 4.17578, 23.4071 4.23222, 23.3148 4.3073, 23.2312 4.40152, 23.1477 4.49573, 23.0736 4.60517, 23.0089 4.72932, 22.9441 4.85372, 22.897 4.98523, 22.8673 5.12361, 22.8378 5.19452, 22.7878 5.23108, 22.7176 5.23354 L 22.6288 5.23354 C 22.564 5.23378, 22.5316 5.20115, 22.5316 5.13539 L 22.5316 5.10791 C 22.5721 4.94597, 22.6342 4.78821, 22.7176 4.6351, 22.8013 4.48199, 22.9011 4.34655, 23.017 4.22878, 23.1328 4.11101, 23.2623 4.01483, 23.4051 3.94024, 23.5479 3.86565, 23.703 3.82835, 23.8698 3.82811, 24.0318 3.82835, 24.1746 3.86368, 24.2985 3.93435, 24.4224 4.00501, 24.5235 4.09923, 24.6015 4.21676, 24.6177 4.24571, 24.6327 4.27663, 24.6462 4.30926, 24.6596 4.34214, 24.6636 4.35048, 24.6582 4.33453, 24.7257 4.2197, 24.8294 4.10659, 24.9695 3.9952, 25.1096 3.88405, 25.2699 3.82835, 25.4504 3.82811, 25.553 3.82835, 25.6548 3.84087, 25.7559 3.86565, 25.857 3.89067, 25.9444 3.93042, 26.0185 3.98538, 26.0926 4.04034, 26.1473 4.10831, 26.1824 4.18928, 26.2013 4.23663, 26.2106 4.29037, 26.2106 4.35024, 26.2106 4.38974, 26.2052 4.43415, 26.1944 4.48371 Z" stroke="none" fill="#000000" />
			<path d="M 0.662872 3.83839 C -1.95817 2.11112, -1.95817 -2.11112, 0.662872 -3.83839 L 1.07452 -3.83839 C -1.28924 -2.11112, -1.28924 2.11112, 1.07452 3.83839" stroke="none" fill="#000000" transform="matrix(1 0 -0 1 20.7953 5.04439)" />
			<path d="M 0.662872 3.83839 C -1.95817 2.11112, -1.95817 -2.11112, 0.662872 -3.83839 L 1.07452 -3.83839 C -1.28924 -2.11112, -1.28924 2.11112, 1.07452 3.83839" stroke="none" fill="#000000" transform="matrix(-1 1.50996e-007 -1.50996e-007 -1 27.6996 5.04439)" />
			<rect />
		</svg>
	</g>
</svg>
